{"title":"Jackass 3 Unrated 2010 DvDRip x264 Feel-Free","uid":6198983,"size":1028478791,"categoryP":"video","categoryS":"movies","magnet":"?xt=urn:btih:14e45c9c2c2d9a1cf079b98c798f1f4471b502e4&amp;dn=Jackass+3+Unrated+2010+DvDRip+x264+Feel-Free&amp;tr=udp%3A%2F%2Ftracker.openbittorrent.com%3A80&amp;tr=udp%3A%2F%2Fopen.demonii.com%3A1337&amp;tr=udp%3A%2F%2Ftracker.coppersurfer.tk%3A6969&amp;tr=udp%3A%2F%2Fexodus.desync.com%3A6969","seeders":0,"leechers":1,"uploader":"hiest","files":-1,"time":1298542686,"description":"\n######## ######## ######## ##          ######## ########  ######## ######## \n##       ##       ##       ##          ##       ##     ## ##       ##       \n##       ##       ##       ##          ##       ##     ## ##       ##       \n######   ######   ######   ##          ######   ########  ######   ######   \n##       ##       ##       ##          ##       ##   ##   ##       ##       \n##       ##       ##       ##          ##       ##    ##  ##       ##       \n##       ######## ######## ########    ##       ##     ## ######## ######## \n\n\nGenre:Documentary | Action | Comedy \nLanguage:English\nIMDb:http://www.imdb.com/title/tt1116184/\nSource:DVD\n\nFormat : MPEG-4\nFormat profile : Base Media\nCodec ID : isom\nFile size : 978 MiB\nDuration : 1h 39mn\nOverall bit rate : 1 371 Kbps\nMovie name : Jackass 3 Unrated 2010 DvDRip x264 Feel-Free\n\n\nVideo\nFormat settings, CABAC : Yes\nFormat settings, ReFrames : 4 frames\nFormat settings, GOP : M=4, N=32\nCodec ID : avc1\nCodec ID/Info : Advanced Video Coding\nDuration : 1h 39mn\nBit rate mode : Variable\nBit rate : 978 Kbps\nWidth : 720 pixels\nHeight : 400 pixels\nDisplay aspect ratio : 16:9\nFrame rate mode : Constant\nFrame rate : 23.976 fps\nColor space : YUV\nChroma subsampling : 4:2:0\nBit depth : 8 bits\nScan type : Progressive\nBits/(Pixel*Frame) : 0.142\nStream size : 702 MiB (72%)\nWriting library : x264\n\nAudio\nID : 2\nFormat : AAC\nFormat/Info : Advanced Audio Codec\nFormat version : Version 4\nFormat profile : LC\nCodec ID : 40\nDuration : 1h 39mn\nBit rate mode : Variable\nBit rate : 384 Kbps\nChannel(s) : 6 channels\nChannel positions : Front: L C R, Side: L R, LFE\nSampling rate : 48.0 KHz\nStream size : 272 MiB (28%)\n\n\nPlot:\nJohnny Knoxville and company return for the third installment of their TV show spin-off, where dangerous stunts and explicit public displays rule\n\n\n\n\n\n\n\n\n================================== &lt;a href=&quot;\nhttp://thepiratebay.se/user/hiest&quot; rel=&quot;nofollow&quot; target=&quot;_NEW&quot;&gt;\nhttp://thepiratebay.se/user/hiest&lt;/a&gt;\n==================================\n\n\n\n\n\n\n\n\nScreen Shots:\n &lt;a href=&quot;\nhttp://www.postimg.com/29000/28852.jpg&quot; rel=&quot;nofollow&quot; target=&quot;_NEW&quot;&gt;\nhttp://www.postimg.com/29000/28852.jpg&lt;/a&gt;\n &lt;a href=&quot;\nhttp://www.postimg.com/29000/28853.jpg&quot; rel=&quot;nofollow&quot; target=&quot;_NEW&quot;&gt;\nhttp://www.postimg.com/29000/28853.jpg&lt;/a&gt;\n &lt;a href=&quot;\nhttp://www.postimg.com/29000/28854.jpg&quot; rel=&quot;nofollow&quot; target=&quot;_NEW&quot;&gt;\nhttp://www.postimg.com/29000/28854.jpg&lt;/a&gt;\n\n\n######## ######## ######## ##          ######## ########  ######## ######## \n##       ##       ##       ##          ##       ##     ## ##       ##       \n##       ##       ##       ##          ##       ##     ## ##       ##       \n######   ######   ######   ##          ######   ########  ######   ######   \n##       ##       ##       ##          ##       ##   ##   ##       ##       \n##       ##       ##       ##          ##       ##    ##  ##       ##       \n##       ######## ######## ########    ##       ##     ## ######## ######## \n\n","torrent":{"xt":"urn:btih:14e45c9c2c2d9a1cf079b98c798f1f4471b502e4","amp;dn":"Jackass+3+Unrated+2010+DvDRip+x264+Feel-Free","amp;tr":["udp%3A%2F%2Ftracker.openbittorrent.com%3A80","udp%3A%2F%2Fopen.demonii.com%3A1337","udp%3A%2F%2Ftracker.coppersurfer.tk%3A6969","udp%3A%2F%2Fexodus.desync.com%3A6969"],"infoHash":"14e45c9c2c2d9a1cf079b98c798f1f4471b502e4","infoHashBuffer":{"type":"Buffer","data":[20,228,92,156,44,45,154,28,240,121,185,140,121,143,31,68,113,181,2,228]},"announce":[],"urlList":[]}}